<svg width="1200" height="900" viewBox="0 0 1200 900" fill="none" xmlns="http://www.w3.org/2000/svg">
  <rect width="1200" height="900" rx="36" fill="#FFF8F0"/>
  <rect x="90" y="90" width="1020" height="720" rx="30" fill="#FFFFFF" stroke="#E9D9C8" stroke-width="4"/>
  <rect x="170" y="160" width="420" height="40" rx="20" fill="#F4E4D3"/>
  <rect x="170" y="228" width="540" height="22" rx="11" fill="#E8D7C5"/>
  <rect x="170" y="268" width="500" height="22" rx="11" fill="#E8D7C5"/>
  <rect x="170" y="332" width="350" height="240" rx="24" fill="#FFF5ED" stroke="#F0D4BF" stroke-width="4"/>
  <text x="220" y="414" font-family="Arial, sans-serif" font-size="44" font-weight="700" fill="#E84B0F">TypeError:</text>
  <text x="220" y="474" font-family="Arial, sans-serif" font-size="36" font-weight="700" fill="#1A1916">Cannot read</text>
  <text x="220" y="528" font-family="Arial, sans-serif" font-size="36" font-weight="700" fill="#1A1916">properties of</text>
  <text x="220" y="582" font-family="Arial, sans-serif" font-size="36" font-weight="700" fill="#1A1916">undefined</text>
  <circle cx="815" cy="390" r="138" fill="#FFF0E7"/>
  <circle cx="815" cy="390" r="96" fill="#E84B0F"/>
  <path d="M775 390h80" stroke="#fff" stroke-width="20" stroke-linecap="round"/>
  <path d="M815 350v80" stroke="#fff" stroke-width="20" stroke-linecap="round"/>
  <rect x="706" y="574" width="220" height="54" rx="18" fill="#1A1916"/>
  <text x="760" y="609" font-family="Arial, sans-serif" font-size="22" font-weight="700" fill="#FFFFFF">Copy error</text>
  <rect x="706" y="650" width="280" height="22" rx="11" fill="#E8D7C5"/>
  <rect x="706" y="688" width="190" height="22" rx="11" fill="#E8D7C5"/>
</svg>
