<svg width="1200" height="900" viewBox="0 0 1200 900" fill="none" xmlns="http://www.w3.org/2000/svg">
  <rect width="1200" height="900" rx="36" fill="#FFF7F1"/>
  <rect x="90" y="90" width="1020" height="720" rx="30" fill="#FFFFFF" stroke="#E9D9C8" stroke-width="4"/>
  <rect x="180" y="150" width="840" height="600" rx="28" fill="#FFF9F4" stroke="#EEDCCB" stroke-width="4"/>
  <rect x="240" y="208" width="260" height="20" rx="10" fill="#E3D1BF"/>
  <rect x="240" y="248" width="440" height="20" rx="10" fill="#D9C9B4"/>
  <rect x="240" y="288" width="360" height="20" rx="10" fill="#E3D1BF"/>
  <rect x="240" y="360" width="720" height="260" rx="22" fill="#1A1916"/>
  <text x="280" y="424" font-family="Arial, sans-serif" font-size="30" font-weight="700" fill="#FFFFFF">Kya hua:</text>
  <text x="430" y="424" font-family="Arial, sans-serif" font-size="30" font-weight="400" fill="#F5D9C5">array abhi undefined hai</text>
  <text x="280" y="488" font-family="Arial, sans-serif" font-size="28" font-weight="700" fill="#FFFFFF">Kyun:</text>
  <text x="392" y="488" font-family="Arial, sans-serif" font-size="28" font-weight="400" fill="#F5D9C5">API se data late aa raha hai</text>
  <text x="280" y="552" font-family="Arial, sans-serif" font-size="28" font-weight="700" fill="#FFFFFF">Fix:</text>
  <text x="372" y="552" font-family="Arial, sans-serif" font-size="28" font-weight="400" fill="#F5D9C5">if (data) data.map(...)</text>
  <circle cx="900" cy="255" r="72" fill="#E84B0F"/>
  <path d="M876 255h48" stroke="#fff" stroke-width="14" stroke-linecap="round"/>
  <path d="M900 231v48" stroke="#fff" stroke-width="14" stroke-linecap="round"/>
  <rect x="792" y="642" width="222" height="44" rx="14" fill="#E84B0F"/>
  <text x="846" y="671" font-family="Arial, sans-serif" font-size="18" font-weight="700" fill="#FFF">Simple fix</text>
</svg>
